<?xml version="1.0" standalone="no"?>
<!DOCTYPE svg PUBLIC "-//W3C//DTD SVG 20010904//EN"
 "http://www.w3.org/TR/2001/REC-SVG-20010904/DTD/svg10.dtd">
<svg version="1.0" xmlns="http://www.w3.org/2000/svg"
 width="1200.000000pt" height="1200.000000pt" viewBox="0 0 1200.000000 1200.000000"
 preserveAspectRatio="xMidYMid meet">

<g transform="translate(0.000000,1200.000000) scale(0.100000,-0.100000)"
fill="#000000" stroke="none">
<path d="M4430 7200 l0 -1570 1570 0 1570 0 0 1570 0 1570 -1570 0 -1570 0 0
-1570z m3070 0 l0 -1500 -1500 0 -1500 0 0 1500 0 1500 1500 0 1500 0 0 -1500z"/>
<path d="M5355 8116 c-73 -18 -124 -48 -176 -103 -57 -58 -83 -109 -99 -189
-40 -202 116 -405 324 -421 35 -3 76 -3 89 1 25 6 25 6 10 46 -17 43 -27 49
-41 24 -20 -36 -70 8 -87 79 -7 26 -6 27 33 27 l41 0 -10 30 c-10 26 -16 30
-49 30 l-38 0 -4 62 c-1 34 -1 90 2 123 l5 60 81 3 81 3 7 -32 c13 -67 12 -69
-56 -70 l-63 -1 90 -29 c67 -21 110 -29 168 -29 74 0 77 -1 77 -24 0 -16 7
-26 22 -29 12 -4 24 -4 27 -1 14 13 12 136 -3 186 -53 183 -252 301 -431 254z
m113 -73 c15 -23 42 -85 42 -99 0 -2 -31 -4 -70 -4 -78 0 -81 4 -56 63 14 34
41 67 56 67 5 0 17 -12 28 -27z m-147 -45 l-18 -53 -51 -3 c-29 -2 -52 1 -52
6 0 18 108 102 132 102 4 0 -1 -24 -11 -52z m300 5 c69 -49 70 -63 5 -63 l-54
0 -16 49 c-9 28 -16 52 -16 55 0 10 35 -7 81 -41z m-331 -163 l0 -50 -80 0
-80 0 6 28 c18 72 18 72 89 72 l65 0 0 -50z m439 13 c18 -63 18 -63 -63 -63
l-73 0 -7 38 c-10 64 -12 62 64 62 l69 0 10 -37z m-439 -168 l0 -45 -64 0
c-69 0 -74 3 -86 56 l-8 34 79 0 79 0 0 -45z m31 -155 c11 -35 12 -50 4 -50
-18 0 -104 60 -116 81 -9 18 -6 19 43 19 l53 0 16 -50z"/>
<path d="M6015 7240 l-730 -730 25 -25 25 -25 730 730 730 730 -25 25 -25 25
-730 -730z"/>
<path d="M5483 7667 c8 -18 33 -83 58 -144 24 -62 47 -113 51 -113 4 0 18 16
31 36 l25 35 48 -42 48 -41 28 33 27 34 -47 42 -47 41 28 30 c16 16 25 32 20
35 -7 4 -108 34 -255 78 l-28 8 13 -32z"/>
<path d="M6580 6895 l0 -35 70 0 70 0 0 -223 c0 -177 -3 -227 -14 -243 -11
-15 -30 -20 -88 -24 l-73 -5 -3 -34 -3 -34 84 5 c92 5 124 18 154 65 16 24 18
59 21 295 l3 268 -110 0 -111 0 0 -35z"/>
<path d="M1740 4325 l0 -35 75 0 75 0 0 -254 0 -255 -26 -20 c-21 -17 -41 -21
-95 -21 l-69 0 0 -35 0 -35 66 0 c130 0 186 36 204 129 5 30 10 168 10 307 l0
254 -120 0 -120 0 0 -35z"/>
<path d="M3750 4014 l0 -346 128 3 c139 4 164 13 199 66 15 23 18 50 18 173 0
162 -8 196 -56 224 -38 22 -137 32 -177 18 -38 -13 -39 -12 -37 111 l1 97 -38
0 -38 0 0 -346z m245 51 c24 -23 25 -30 25 -150 0 -120 -1 -127 -25 -150 -21
-22 -33 -25 -93 -25 -47 0 -71 4 -74 13 -2 6 -4 77 -3 156 1 137 2 144 24 162
36 29 115 26 146 -6z"/>
<path d="M4907 4346 c-93 -33 -97 -48 -97 -328 0 -271 4 -287 80 -325 36 -19
61 -23 137 -23 l93 0 0 34 0 34 -96 4 c-139 5 -134 -6 -134 273 0 279 -5 268
134 273 l96 4 0 34 0 34 -87 0 c-49 -1 -105 -7 -126 -14z"/>
<path d="M5310 4015 l0 -345 38 0 37 0 0 191 c0 188 1 191 24 210 36 29 115
26 146 -6 25 -24 25 -26 25 -210 l0 -185 41 0 41 0 -4 198 c-3 227 -10 248
-78 276 -45 18 -125 21 -163 7 -32 -13 -33 -9 -32 112 l1 97 -38 0 -38 0 0
-345z"/>
<path d="M6480 4315 l0 -45 45 0 45 0 0 45 0 45 -45 0 -45 0 0 -45z"/>
<path d="M7500 4221 l0 -60 -47 -3 c-46 -3 -48 -4 -48 -33 0 -29 2 -30 47 -33
l47 -3 3 -184 c3 -177 4 -185 26 -207 19 -20 35 -24 107 -27 l85 -3 0 36 0 36
-54 0 c-91 0 -86 -10 -86 181 l0 169 70 0 70 0 0 35 0 35 -70 0 -70 0 0 60 0
60 -40 0 -40 0 0 -59z"/>
<path d="M2208 4154 c-2 -5 -4 -20 -4 -34 1 -24 3 -25 94 -30 83 -4 96 -8 113
-29 10 -13 19 -38 19 -57 l0 -34 -85 0 c-138 0 -175 -33 -175 -154 0 -83 13
-111 62 -130 51 -21 166 -21 196 0 20 14 24 14 44 0 12 -9 37 -16 55 -16 31 0
33 2 33 34 0 27 -5 35 -24 40 -24 6 -24 7 -28 164 -2 130 -6 163 -21 185 -33
50 -62 61 -173 65 -56 2 -103 0 -106 -4z m222 -318 c0 -84 -12 -96 -94 -96
-35 0 -67 5 -74 12 -7 7 -12 36 -12 64 0 73 13 84 106 84 l74 0 0 -64z"/>
<path d="M2812 4140 c-62 -28 -72 -59 -72 -225 0 -212 18 -237 182 -243 l98
-4 0 36 0 36 -78 0 c-122 0 -122 0 -122 175 0 175 0 175 122 175 l78 0 0 35 0
35 -82 0 c-61 0 -95 -6 -126 -20z"/>
<path d="M3320 4151 c-83 -27 -100 -67 -100 -236 0 -205 26 -240 180 -240 157
0 180 31 180 240 0 155 -11 195 -64 222 -35 18 -157 27 -196 14z m166 -86 c10
-14 14 -55 14 -150 0 -160 -3 -167 -86 -173 -49 -3 -63 0 -86 18 l-28 21 0
134 0 134 28 21 c23 18 37 21 86 18 42 -3 62 -10 72 -23z"/>
<path d="M5840 4125 c0 -33 2 -35 35 -35 l35 0 0 -175 0 -175 -35 0 c-33 0
-35 -2 -35 -35 l0 -35 125 0 125 0 0 35 0 35 -50 0 -50 0 0 155 c0 190 3 195
105 195 l65 0 0 35 0 35 -60 0 c-32 0 -71 -6 -86 -12 -22 -10 -28 -10 -32 0
-2 8 -27 12 -73 12 l-69 0 0 -35z"/>
<path d="M6340 4125 l0 -35 70 0 70 0 0 -210 0 -210 110 0 110 0 0 35 0 35
-70 0 -70 0 0 210 0 210 -110 0 -110 0 0 -35z"/>
<path d="M6973 4149 c-52 -15 -73 -51 -73 -126 0 -35 5 -73 10 -84 16 -29 64
-49 119 -49 62 0 81 -17 81 -74 0 -65 -18 -76 -123 -76 l-87 0 0 -35 0 -35 90
0 c152 0 195 31 195 139 0 109 -24 137 -130 150 -36 4 -68 10 -71 14 -3 3 -7
25 -7 48 -1 58 18 69 115 69 l78 0 0 35 0 35 -82 -1 c-46 0 -97 -5 -115 -10z"/>
<path d="M7991 4147 c-19 -7 -44 -25 -55 -40 -19 -26 -21 -42 -21 -180 0 -231
13 -248 198 -255 l107 -4 0 36 0 36 -90 0 c-83 0 -93 2 -115 25 -19 18 -25 35
-25 70 l0 45 131 0 131 0 -4 98 c-4 112 -18 145 -73 168 -41 17 -137 17 -184
1z m157 -73 c18 -12 22 -25 22 -70 l0 -54 -90 0 -90 0 0 50 c0 67 22 90 88 90
27 0 57 -7 70 -16z"/>
<path d="M8430 3915 l0 -245 38 0 37 0 0 191 c0 188 1 191 24 210 36 29 115
26 146 -6 25 -24 25 -26 25 -210 l0 -185 41 0 41 0 -4 198 c-3 227 -10 248
-78 276 -46 18 -126 21 -167 5 -19 -7 -29 -7 -31 0 -2 6 -19 11 -38 11 l-34 0
0 -245z"/>
<path d="M9053 4149 c-52 -15 -73 -51 -73 -126 0 -35 5 -73 10 -84 16 -29 64
-49 119 -49 62 0 81 -17 81 -74 0 -65 -18 -76 -123 -76 l-87 0 0 -35 0 -35 90
0 c152 0 195 31 195 139 0 109 -24 137 -130 150 -36 4 -68 10 -71 14 -3 3 -7
25 -7 48 -1 58 18 69 115 69 l78 0 0 35 0 35 -82 -1 c-46 0 -97 -5 -115 -10z"/>
<path d="M9551 4147 c-19 -7 -44 -25 -55 -40 -19 -26 -21 -42 -21 -180 0 -231
13 -248 198 -255 l107 -4 0 36 0 36 -90 0 c-83 0 -93 2 -115 25 -19 18 -25 35
-25 70 l0 45 131 0 131 0 -4 98 c-4 112 -18 145 -73 168 -41 17 -137 17 -184
1z m157 -73 c18 -12 22 -25 22 -70 l0 -54 -90 0 -90 0 0 50 c0 67 22 90 88 90
27 0 57 -7 70 -16z"/>
<path d="M9990 3915 l0 -245 38 0 37 0 0 191 c0 188 1 191 24 210 36 29 115
26 146 -6 25 -24 25 -26 25 -210 l0 -185 41 0 41 0 -4 198 c-3 227 -10 248
-78 276 -46 18 -126 21 -167 5 -19 -7 -29 -7 -31 0 -2 6 -19 11 -38 11 l-34 0
0 -245z"/>
</g>
</svg>
